<svg xmlns="http://www.w3.org/2000/svg" viewBox="0 0 256 256" role="img" aria-label="Spotify">
  <circle cx="128" cy="128" r="128" fill="#1DB954"/>
  <path fill="#0B0F0C" d="M187.6 170.2c-2.2 3.6-6.9 4.7-10.5 2.5-28.7-17.6-64.9-21.6-107.6-11.8-4.1 1-8.2-1.6-9.2-5.7-1-4.1 1.6-8.2 5.7-9.2 46.7-10.7 86.9-6.1 119.6 13.9 3.6 2.2 4.7 6.9 2.5 10.5z"/>
  <path fill="#0B0F0C" d="M202.8 136.3c-2.8 4.6-8.8 6-13.4 3.2-32.9-20.2-83.1-26.1-122.1-14.2-5.2 1.6-10.7-1.4-12.3-6.6-1.6-5.2 1.4-10.7 6.6-12.3 44.6-13.6 100.2-7 137.9 16.2 4.6 2.8 6 8.8 3.2 13.5z"/>
  <path fill="#0B0F0C" d="M204.1 101.1c-39.5-23.4-104.6-25.6-142.3-14.2-6.2 1.9-12.7-1.6-14.6-7.8-1.9-6.2 1.6-12.7 7.8-14.6 43.3-13.1 115.3-10.6 161.1 16.6 5.6 3.3 7.4 10.6 4.1 16.2-3.3 5.6-10.6 7.4-16.1 3.8z"/>
</svg>
